<?xml version="1.0" encoding="UTF-8"?>
<!-- Moral Spectrum Analyzer mark: the ErisML apple (the judgment) refracts
     into its nine-axis moral spectrum. Builds on erisml_apple.svg (apple
     geometry embedded unchanged; do not recolour). (c) 2026 Andrew H. Bond. -->
<svg xmlns="http://www.w3.org/2000/svg" viewBox="0 0 400 200" role="img" aria-label="Moral Spectrum Analyzer">
  <title>Moral Spectrum Analyzer</title>
  <g stroke-linecap="round">
    <line x1="131.0" y1="104.0" x2="187.3" y2="112.2" stroke="#F5C147" stroke-width="1.3" opacity="0.55"/>
    <line x1="131.0" y1="104.0" x2="210.0" y2="98.0" stroke="#ECA84C" stroke-width="1.3" opacity="0.55"/>
    <line x1="131.0" y1="104.0" x2="232.7" y2="80.9" stroke="#CFC755" stroke-width="1.3" opacity="0.55"/>
    <line x1="131.0" y1="104.0" x2="255.3" y2="90.4" stroke="#9CD16E" stroke-width="1.3" opacity="0.55"/>
    <line x1="131.0" y1="104.0" x2="278.0" y2="69.5" stroke="#6ED18C" stroke-width="1.3" opacity="0.55"/>
    <line x1="131.0" y1="104.0" x2="300.7" y2="83.8" stroke="#62CBB0" stroke-width="1.3" opacity="0.55"/>
    <line x1="131.0" y1="104.0" x2="323.3" y2="74.2" stroke="#5BB8D8" stroke-width="1.3" opacity="0.55"/>
    <line x1="131.0" y1="104.0" x2="346.0" y2="98.0" stroke="#53A0EE" stroke-width="1.3" opacity="0.55"/>
    <line x1="131.0" y1="104.0" x2="368.7" y2="86.6" stroke="#4C8BF5" stroke-width="1.3" opacity="0.55"/>
  </g>
  <g>
    <rect x="179.8" y="112.2" width="15.0" height="42.8" rx="2" fill="#F5C147"/>
    <rect x="202.5" y="98.0" width="15.0" height="57.0" rx="2" fill="#ECA84C"/>
    <rect x="225.2" y="80.9" width="15.0" height="74.1" rx="2" fill="#CFC755"/>
    <rect x="247.8" y="90.4" width="15.0" height="64.6" rx="2" fill="#9CD16E"/>
    <rect x="270.5" y="69.5" width="15.0" height="85.5" rx="2" fill="#6ED18C"/>
    <rect x="293.2" y="83.8" width="15.0" height="71.2" rx="2" fill="#62CBB0"/>
    <rect x="315.8" y="74.2" width="15.0" height="80.8" rx="2" fill="#5BB8D8"/>
    <rect x="338.5" y="98.0" width="15.0" height="57.0" rx="2" fill="#53A0EE"/>
    <rect x="361.2" y="86.6" width="15.0" height="68.4" rx="2" fill="#4C8BF5"/>
  </g>
  <g transform="translate(15,18.75) scale(0.75)">
    <circle cx="100" cy="115" r="58" fill="#f5c147"/>
    <ellipse cx="84" cy="95" rx="14" ry="20" fill="#ffe8a8" opacity="0.5"/>
    <path d="M 96 60 Q 100 46 112 50" fill="none" stroke="#6b3a00" stroke-width="3.5" stroke-linecap="round"/>
    <path d="M 114 50 Q 135 42 140 62 Q 124 67 114 50 Z" fill="#4ade80"/>
    <path d="M 114 50 Q 130 52 140 62" fill="none" stroke="#166534" stroke-width="1"/>
  </g>
</svg>
